<?xml version="1.0" standalone="no"?>
<!DOCTYPE svg PUBLIC "-//W3C//DTD SVG 20010904//EN"
 "http://www.w3.org/TR/2001/REC-SVG-20010904/DTD/svg10.dtd">
<svg version="1.0" xmlns="http://www.w3.org/2000/svg"
 width="600.000000pt" height="600.000000pt" viewBox="0 0 600.000000 600.000000"
 preserveAspectRatio="xMidYMid meet">
<metadata>
Created by potrace 1.16, written by Peter Selinger 2001-2019
</metadata>
<g transform="translate(0.000000,600.000000) scale(0.100000,-0.100000)"
fill="#000000" stroke="none">
<path d="M4390 5736 c0 -2 18 -22 40 -46 36 -39 79 -124 68 -135 -3 -3 -33 -7
-67 -10 -195 -15 -386 -127 -521 -306 -58 -78 -78 -118 -42 -87 52 46 160 75
221 58 22 -6 41 -15 41 -19 0 -5 -7 -28 -15 -52 -20 -55 -33 -214 -22 -260 30
-126 85 -264 130 -323 13 -17 14 -11 11 62 -6 148 30 190 271 317 154 81 234
131 257 160 11 14 23 25 27 25 4 0 29 -33 56 -74 l48 -74 31 61 c40 78 92 154
117 170 10 6 19 17 19 23 0 7 7 15 16 18 8 3 12 10 9 16 -4 6 -10 8 -14 6 -4
-3 -30 -8 -57 -11 -27 -4 -75 -12 -106 -19 -32 -7 -60 -11 -63 -8 -3 3 -5 25
-5 48 0 59 -18 139 -46 202 -30 67 -121 159 -194 194 -46 22 -210 72 -210 64z"/>
<path d="M1913 5460 c-2 -3 -28 -6 -56 -7 -29 -1 -99 -11 -157 -21 -273 -51
-478 -127 -689 -254 -345 -208 -571 -491 -632 -792 -13 -63 -19 -224 -10 -250
7 -19 8 -18 24 4 22 32 144 156 203 208 80 70 216 159 316 207 177 85 321 115
511 104 26 -1 47 -4 47 -7 0 -2 -29 -43 -65 -90 -107 -142 -196 -341 -220
-492 -4 -25 -9 -54 -11 -65 -7 -33 -6 -267 1 -320 9 -67 51 -240 64 -262 9
-16 10 -15 11 7 0 39 37 165 70 236 65 144 183 287 311 377 58 41 243 137 263
137 4 0 -2 -16 -15 -36 -104 -168 -170 -402 -170 -604 0 -147 32 -322 86 -466
30 -80 117 -254 127 -254 4 0 6 17 4 38 -4 49 18 150 43 200 86 169 334 197
478 54 116 -115 173 -297 178 -572 4 -214 -7 -278 -83 -440 -25 -56 -100 -165
-149 -220 l-45 -50 20 -27 c66 -92 169 -150 354 -199 12 -4 8 11 -19 61 -19
37 -33 68 -32 69 9 8 143 47 234 70 125 30 269 54 363 60 23 2 45 6 48 9 3 3
12 3 20 0 19 -7 39 42 80 202 74 290 107 599 79 744 -10 54 -11 55 -55 66
-168 44 -379 165 -508 293 -189 187 -274 372 -273 592 0 208 77 388 283 662
121 160 126 169 145 241 26 104 -1 241 -71 361 -65 110 -221 243 -360 306
-130 58 -318 106 -446 114 -30 2 -55 4 -55 5 0 5 -237 6 -242 1z"/>
<path d="M5061 5038 c-89 -163 -130 -296 -126 -409 8 -201 125 -310 277 -260
38 13 97 70 99 96 6 95 -11 145 -78 235 -98 133 -132 226 -128 348 2 34 1 62
0 62 -2 0 -22 -33 -44 -72z"/>
<path d="M4790 4578 c-17 -92 -15 -284 4 -359 19 -73 66 -169 163 -334 142
-241 211 -410 218 -531 2 -35 6 -68 9 -73 7 -10 -1 -164 -10 -221 -16 -99 -65
-209 -120 -269 -135 -150 -381 -80 -444 126 -17 57 -20 88 -16 188 3 110 8
134 55 290 29 94 57 193 62 220 16 76 13 197 -6 262 -16 54 -51 133 -59 133
-2 0 -2 -35 0 -78 7 -171 -66 -362 -237 -617 -133 -199 -319 -314 -696 -431
-7 -2 -13 -14 -14 -26 0 -13 -3 -32 -5 -43 -7 -26 -10 -455 -5 -461 3 -3 6
-19 7 -37 0 -18 4 -57 8 -87 4 -30 9 -73 12 -95 8 -69 36 -219 45 -244 6 -15
15 -21 24 -17 8 3 15 2 15 -2 0 -4 19 -7 43 -8 59 -1 133 -12 268 -39 106 -21
328 -81 337 -90 3 -2 -12 -33 -32 -69 -20 -37 -35 -66 -33 -66 2 0 42 13 90
29 497 168 984 721 1132 1286 70 266 19 553 -133 757 -73 96 -127 150 -302
297 -36 30 -106 96 -157 147 -75 75 -99 107 -132 177 -45 91 -68 186 -70 281
-1 33 -3 62 -5 63 -2 2 -9 -24 -16 -59z"/>
<path d="M3345 1632 c-1 -2 -31 -5 -66 -7 -70 -5 -85 -7 -209 -30 -103 -18
-293 -73 -265 -75 11 -1 25 -1 30 0 11 2 62 8 140 16 168 17 415 8 439 -17 2
-2 7 -42 11 -89 3 -47 8 -103 10 -125 3 -22 7 -67 10 -100 5 -64 10 -111 20
-215 4 -36 9 -85 10 -110 2 -25 4 -45 5 -45 3 0 8 -45 11 -102 2 -29 7 -49 12
-44 4 4 6 218 5 477 l-3 469 -78 0 c-43 0 -80 -1 -82 -3z"/>
<path d="M3620 1158 c0 -454 4 -561 15 -402 3 38 7 85 9 104 2 19 7 69 11 110
3 41 8 91 11 110 3 19 7 64 9 99 2 35 7 84 10 110 7 45 11 87 19 177 4 55 9
60 61 72 38 8 275 7 375 -2 147 -13 172 -16 181 -21 5 -4 9 -2 9 3 0 14 -169
58 -330 87 -77 13 -176 24 -292 30 l-88 5 0 -482z"/>
<path d="M2947 1352 c-15 -17 -17 -51 -17 -328 0 -228 3 -313 12 -322 7 -7 33
-12 59 -12 l47 0 4 175 c4 202 6 208 86 211 82 3 80 8 82 -192 0 -97 3 -181 6
-185 8 -13 98 -11 112 3 15 15 17 334 2 343 -5 3 -10 17 -10 30 0 14 -12 39
-28 56 -46 52 -177 63 -218 18 -9 -10 -21 -19 -25 -19 -5 0 -10 53 -11 118
l-3 117 -41 3 c-29 2 -45 -2 -57 -16z"/>
<path d="M1140 996 l0 -308 166 3 166 4 28 32 c68 75 60 245 -11 271 -19 7
-19 9 6 30 14 12 30 33 35 46 13 34 3 132 -16 165 -32 54 -60 62 -224 64
l-150 2 0 -309z m277 184 c17 -33 16 -82 -1 -106 -12 -16 -27 -19 -88 -19
l-73 0 -3 77 -3 76 78 -1 c72 -2 78 -4 90 -27z m11 -250 c16 -30 9 -120 -10
-132 -7 -4 -48 -8 -90 -8 l-78 0 0 86 0 85 82 -3 c76 -3 83 -5 96 -28z"/>
<path d="M1720 1168 c-33 -12 -70 -47 -82 -77 -5 -14 -9 -84 -9 -157 -1 -162
11 -196 77 -226 37 -16 63 -18 176 -16 l133 3 3 36 c2 21 -2 40 -10 47 -8 6
-61 12 -123 13 -61 1 -118 5 -127 11 -23 12 -25 73 -2 82 9 3 70 6 136 6 l120
0 -4 105 c-3 99 -5 106 -32 134 -16 17 -41 34 -56 39 -35 13 -168 13 -200 0z
m163 -100 c12 -6 17 -21 17 -56 l0 -47 -78 0 -77 0 0 48 c0 31 5 51 15 57 19
12 99 11 123 -2z"/>
<path d="M2096 1172 c-8 -13 -11 -456 -3 -469 5 -8 29 -13 57 -13 36 0 49 4
54 17 4 10 6 89 5 177 -2 154 -1 160 21 178 29 23 91 23 119 1 20 -17 21 -29
23 -193 l3 -175 49 -3 c32 -2 52 1 57 10 5 7 9 83 9 169 0 234 -23 289 -129
304 -56 7 -126 -8 -135 -30 -3 -8 -10 -15 -16 -15 -6 0 -8 5 -5 10 13 21 -17
40 -61 40 -23 0 -45 -3 -48 -8z"/>
<path d="M2675 1173 c-97 -24 -115 -62 -115 -241 0 -140 11 -178 63 -216 23
-17 47 -21 138 -24 l110 -4 -3 53 -3 54 -83 0 c-107 0 -109 3 -111 140 -2 137
4 145 120 145 l80 0 -3 48 -3 47 -85 2 c-47 0 -94 -1 -105 -4z"/>
<path d="M3885 1171 c-95 -23 -110 -56 -110 -236 0 -198 23 -233 154 -243 140
-10 213 22 232 103 9 41 14 238 6 252 -3 4 -8 22 -11 39 -9 39 -32 62 -83 80
-40 14 -138 17 -188 5z m155 -111 c18 -18 19 -32 17 -134 -1 -63 -5 -118 -10
-122 -4 -4 -34 -9 -66 -10 -92 -4 -96 2 -96 139 0 138 5 147 81 147 41 0 59
-5 74 -20z"/>
<path d="M4255 1168 c-3 -7 -4 -215 -3 -463 l3 -450 52 -3 c48 -3 53 -1 58 20
3 13 5 124 3 246 -3 200 2 251 18 208 10 -25 61 -39 125 -33 113 10 142 54
146 222 4 204 -31 258 -169 259 -56 1 -70 -3 -90 -21 -25 -24 -44 -31 -33 -13
4 6 1 17 -5 25 -15 19 -99 20 -105 3z m268 -107 c13 -10 16 -34 15 -121 -1
-138 -7 -148 -84 -145 -81 4 -86 12 -86 141 0 96 2 110 20 124 24 20 112 21
135 1z"/>
</g>
</svg>
